<svg width="35" height="35" viewBox="0 0 35 35" fill="none" xmlns="http://www.w3.org/2000/svg">
<path fill-rule="evenodd" clip-rule="evenodd" d="M2 0V3.5H32V0H2ZM13.6667 21H20.3333V17.5H13.6667V21ZM27 12.2498H7V8.74981H27V12.2498Z" fill="#0D132B"/>
<path d="M2.068 26.004V29.029H6.05V29.733H2.068V33H1.254V25.3H6.534V26.004H2.068ZM7.94252 27.214H8.72352V33H7.94252V27.214ZM8.33852 25.949C8.17718 25.949 8.04152 25.894 7.93152 25.784C7.82152 25.674 7.76652 25.542 7.76652 25.388C7.76652 25.2413 7.82152 25.113 7.93152 25.003C8.04152 24.893 8.17718 24.838 8.33852 24.838C8.49985 24.838 8.63552 24.893 8.74552 25.003C8.85552 25.1057 8.91052 25.2303 8.91052 25.377C8.91052 25.5383 8.85552 25.674 8.74552 25.784C8.63552 25.894 8.49985 25.949 8.33852 25.949ZM10.8966 24.838H11.6776V33H10.8966V24.838ZM16.9192 32.648C16.7725 32.78 16.5892 32.8827 16.3692 32.956C16.1565 33.022 15.9329 33.055 15.6982 33.055C15.1555 33.055 14.7375 32.9083 14.4442 32.615C14.1509 32.3217 14.0042 31.9073 14.0042 31.372V27.874H12.9702V27.214H14.0042V25.949H14.7852V27.214H16.5452V27.874H14.7852V31.328C14.7852 31.6727 14.8695 31.9367 15.0382 32.12C15.2142 32.296 15.4635 32.384 15.7862 32.384C15.9475 32.384 16.1015 32.3583 16.2482 32.307C16.4022 32.2557 16.5342 32.1823 16.6442 32.087L16.9192 32.648ZM19.089 28.347C19.2723 27.9583 19.5436 27.665 19.903 27.467C20.2696 27.269 20.7206 27.17 21.256 27.17V27.929L21.069 27.918C20.4603 27.918 19.9836 28.105 19.639 28.479C19.2943 28.853 19.122 29.3773 19.122 30.052V33H18.341V27.214H19.089V28.347ZM24.9813 33.055C24.424 33.055 23.9217 32.9303 23.4743 32.681C23.027 32.4243 22.675 32.0723 22.4183 31.625C22.1617 31.1777 22.0333 30.6717 22.0333 30.107C22.0333 29.5423 22.1617 29.0363 22.4183 28.589C22.675 28.1417 23.027 27.7933 23.4743 27.544C23.9217 27.2947 24.424 27.17 24.9813 27.17C25.5387 27.17 26.041 27.2947 26.4883 27.544C26.9357 27.7933 27.284 28.1417 27.5333 28.589C27.79 29.0363 27.9183 29.5423 27.9183 30.107C27.9183 30.6717 27.79 31.1777 27.5333 31.625C27.284 32.0723 26.9357 32.4243 26.4883 32.681C26.041 32.9303 25.5387 33.055 24.9813 33.055ZM24.9813 32.362C25.392 32.362 25.7587 32.2703 26.0813 32.087C26.4113 31.8963 26.668 31.6287 26.8513 31.284C27.0347 30.9393 27.1263 30.547 27.1263 30.107C27.1263 29.667 27.0347 29.2747 26.8513 28.93C26.668 28.5853 26.4113 28.3213 26.0813 28.138C25.7587 27.9473 25.392 27.852 24.9813 27.852C24.5707 27.852 24.2003 27.9473 23.8703 28.138C23.5477 28.3213 23.291 28.5853 23.1003 28.93C22.917 29.2747 22.8253 29.667 22.8253 30.107C22.8253 30.547 22.917 30.9393 23.1003 31.284C23.291 31.6287 23.5477 31.8963 23.8703 32.087C24.2003 32.2703 24.5707 32.362 24.9813 32.362ZM31.0638 33.055C30.5945 33.055 30.1435 32.989 29.7108 32.857C29.2855 32.7177 28.9518 32.5453 28.7098 32.34L29.0618 31.724C29.3038 31.9147 29.6082 32.0723 29.9748 32.197C30.3415 32.3143 30.7228 32.373 31.1188 32.373C31.6468 32.373 32.0355 32.2923 32.2848 32.131C32.5415 31.9623 32.6698 31.7277 32.6698 31.427C32.6698 31.2143 32.6002 31.0493 32.4608 30.932C32.3215 30.8073 32.1455 30.7157 31.9328 30.657C31.7202 30.591 31.4378 30.5287 31.0858 30.47C30.6165 30.382 30.2388 30.294 29.9528 30.206C29.6668 30.1107 29.4212 29.953 29.2158 29.733C29.0178 29.513 28.9188 29.2087 28.9188 28.82C28.9188 28.336 29.1205 27.94 29.5238 27.632C29.9272 27.324 30.4882 27.17 31.2068 27.17C31.5808 27.17 31.9548 27.2213 32.3288 27.324C32.7028 27.4193 33.0108 27.5477 33.2528 27.709L32.9118 28.336C32.4352 28.006 31.8668 27.841 31.2068 27.841C30.7082 27.841 30.3305 27.929 30.0738 28.105C29.8245 28.281 29.6998 28.512 29.6998 28.798C29.6998 29.018 29.7695 29.194 29.9088 29.326C30.0555 29.458 30.2352 29.557 30.4478 29.623C30.6605 29.6817 30.9538 29.744 31.3278 29.81C31.7898 29.898 32.1602 29.986 32.4388 30.074C32.7175 30.162 32.9558 30.3123 33.1538 30.525C33.3518 30.7377 33.4508 31.031 33.4508 31.405C33.4508 31.911 33.2382 32.3143 32.8128 32.615C32.3948 32.9083 31.8118 33.055 31.0638 33.055Z" fill="#0D132B"/>
</svg>
