<svg width="40" height="41" viewBox="0 0 40 41" fill="none" xmlns="http://www.w3.org/2000/svg">
<path d="M20 0.625C8.96 0.625 0 9.585 0 20.625C0 31.665 8.96 40.625 20 40.625C31.04 40.625 40 31.665 40 20.625C40 9.585 31.04 0.625 20 0.625ZM20 6.625C23.32 6.625 26 9.305 26 12.625C26 15.945 23.32 18.625 20 18.625C16.68 18.625 14 15.945 14 12.625C14 9.305 16.68 6.625 20 6.625ZM20 35.025C15 35.025 10.58 32.465 8 28.585C8.06 24.605 16 22.425 20 22.425C23.98 22.425 31.94 24.605 32 28.585C29.42 32.465 25 35.025 20 35.025Z" fill="black" fill-opacity="0.24"/>
</svg>
