<svg width="20" height="25" viewBox="0 0 20 25" fill="none" xmlns="http://www.w3.org/2000/svg">
<path fill-rule="evenodd" clip-rule="evenodd" d="M3.75 6.25V10H2.5C1.16456 10 0 10.9705 0 12.2917V22.7083C0 24.0295 1.16456 25 2.5 25H17.5C18.8354 25 20 24.0295 20 22.7083V12.2917C20 10.9705 18.8354 10 17.5 10H16.25V6.25C16.25 2.79822 13.4518 0 10 0C6.54822 0 3.75 2.79822 3.75 6.25ZM13.75 6.25V10H6.25V6.25C6.25 4.17893 7.92893 2.5 10 2.5C12.0711 2.5 13.75 4.17893 13.75 6.25ZM2.5 22.5V12.5H17.5V22.5H2.5ZM11.25 17.5C11.25 18.1904 10.6904 18.75 10 18.75C9.30964 18.75 8.75 18.1904 8.75 17.5C8.75 16.8096 9.30964 16.25 10 16.25C10.6904 16.25 11.25 16.8096 11.25 17.5Z" fill="#606060"/>
</svg>
