<svg width="787" height="38" viewBox="0 0 787 38" fill="none" xmlns="http://www.w3.org/2000/svg">
<rect width="787" height="1" transform="matrix(1 0 0 -1 0 1)" fill="#A6A6A6"/>
<path d="M231.675 14.148H236.393V15.912H231.675V14.148ZM231.843 18.18H237.177V20H229.589V10.2H236.995V12.02H231.843V18.18ZM240.787 20.168C240.125 20.168 239.513 20.0467 238.953 19.804C238.403 19.552 237.95 19.1973 237.595 18.74L238.855 17.228C239.126 17.5827 239.411 17.8533 239.709 18.04C240.008 18.2173 240.33 18.306 240.675 18.306C241.599 18.306 242.061 17.7647 242.061 16.682V12.02H238.617V10.2H244.315V16.556C244.315 17.7693 244.017 18.6747 243.419 19.272C242.822 19.8693 241.945 20.168 240.787 20.168ZM248.642 14.148H253.36V15.912H248.642V14.148ZM248.81 18.18H254.144V20H246.556V10.2H253.962V12.02H248.81V18.18ZM260.638 20.168C259.882 20.168 259.177 20.0467 258.524 19.804C257.88 19.552 257.32 19.1973 256.844 18.74C256.368 18.2827 255.995 17.746 255.724 17.13C255.463 16.514 255.332 15.8373 255.332 15.1C255.332 14.3627 255.463 13.686 255.724 13.07C255.995 12.454 256.368 11.9173 256.844 11.46C257.329 11.0027 257.894 10.6527 258.538 10.41C259.182 10.158 259.887 10.032 260.652 10.032C261.501 10.032 262.267 10.1813 262.948 10.48C263.639 10.7693 264.217 11.1987 264.684 11.768L263.228 13.112C262.892 12.7293 262.519 12.4447 262.108 12.258C261.697 12.062 261.249 11.964 260.764 11.964C260.307 11.964 259.887 12.0387 259.504 12.188C259.121 12.3373 258.79 12.552 258.51 12.832C258.23 13.112 258.011 13.4433 257.852 13.826C257.703 14.2087 257.628 14.6333 257.628 15.1C257.628 15.5667 257.703 15.9913 257.852 16.374C258.011 16.7567 258.23 17.088 258.51 17.368C258.79 17.648 259.121 17.8627 259.504 18.012C259.887 18.1613 260.307 18.236 260.764 18.236C261.249 18.236 261.697 18.1427 262.108 17.956C262.519 17.76 262.892 17.466 263.228 17.074L264.684 18.418C264.217 18.9873 263.639 19.4213 262.948 19.72C262.267 20.0187 261.497 20.168 260.638 20.168ZM268.15 20V12.048H265.014V10.2H273.554V12.048H270.418V20H268.15ZM283.429 20.168C282.673 20.168 281.968 20.0467 281.315 19.804C280.671 19.552 280.111 19.1973 279.635 18.74C279.159 18.2827 278.786 17.746 278.515 17.13C278.254 16.514 278.123 15.8373 278.123 15.1C278.123 14.3627 278.254 13.686 278.515 13.07C278.786 12.454 279.159 11.9173 279.635 11.46C280.12 11.0027 280.685 10.6527 281.329 10.41C281.973 10.158 282.678 10.032 283.443 10.032C284.292 10.032 285.058 10.1813 285.739 10.48C286.43 10.7693 287.008 11.1987 287.475 11.768L286.019 13.112C285.683 12.7293 285.31 12.4447 284.899 12.258C284.488 12.062 284.04 11.964 283.555 11.964C283.098 11.964 282.678 12.0387 282.295 12.188C281.912 12.3373 281.581 12.552 281.301 12.832C281.021 13.112 280.802 13.4433 280.643 13.826C280.494 14.2087 280.419 14.6333 280.419 15.1C280.419 15.5667 280.494 15.9913 280.643 16.374C280.802 16.7567 281.021 17.088 281.301 17.368C281.581 17.648 281.912 17.8627 282.295 18.012C282.678 18.1613 283.098 18.236 283.555 18.236C284.04 18.236 284.488 18.1427 284.899 17.956C285.31 17.76 285.683 17.466 286.019 17.074L287.475 18.418C287.008 18.9873 286.43 19.4213 285.739 19.72C285.058 20.0187 284.288 20.168 283.429 20.168ZM291.906 20L287.678 10.2H290.128L293.824 18.88H292.382L296.134 10.2H298.388L294.146 20H291.906ZM299.206 20V10.2H303.994C305.226 10.2 306.15 10.4333 306.766 10.9C307.391 11.3667 307.704 11.9827 307.704 12.748C307.704 13.2613 307.578 13.7093 307.326 14.092C307.074 14.4653 306.729 14.7547 306.29 14.96C305.851 15.1653 305.347 15.268 304.778 15.268L305.044 14.694C305.66 14.694 306.206 14.7967 306.682 15.002C307.158 15.198 307.527 15.492 307.788 15.884C308.059 16.276 308.194 16.7567 308.194 17.326C308.194 18.166 307.863 18.824 307.2 19.3C306.537 19.7667 305.562 20 304.274 20H299.206ZM301.46 18.292H304.106C304.694 18.292 305.137 18.1987 305.436 18.012C305.744 17.816 305.898 17.508 305.898 17.088C305.898 16.6773 305.744 16.374 305.436 16.178C305.137 15.9727 304.694 15.87 304.106 15.87H301.292V14.218H303.714C304.265 14.218 304.685 14.1247 304.974 13.938C305.273 13.742 305.422 13.448 305.422 13.056C305.422 12.6733 305.273 12.3887 304.974 12.202C304.685 12.006 304.265 11.908 303.714 11.908H301.46V18.292ZM318.069 20.042C317.369 20.042 316.72 19.916 316.123 19.664C315.526 19.412 315.003 19.062 314.555 18.614C314.107 18.1567 313.757 17.6293 313.505 17.032C313.262 16.4347 313.141 15.7907 313.141 15.1C313.141 14.4093 313.267 13.7653 313.519 13.168C313.771 12.5707 314.121 12.048 314.569 11.6C315.017 11.1427 315.54 10.788 316.137 10.536C316.744 10.284 317.397 10.158 318.097 10.158C318.797 10.158 319.446 10.284 320.043 10.536C320.65 10.7787 321.172 11.124 321.611 11.572C322.059 12.02 322.404 12.5427 322.647 13.14C322.899 13.728 323.025 14.372 323.025 15.072C323.025 15.772 322.899 16.4253 322.647 17.032C322.395 17.6293 322.04 18.1567 321.583 18.614C321.135 19.062 320.612 19.412 320.015 19.664C319.418 19.916 318.769 20.042 318.069 20.042ZM318.055 19.524C318.69 19.524 319.273 19.412 319.805 19.188C320.337 18.9547 320.804 18.6373 321.205 18.236C321.616 17.8347 321.933 17.3633 322.157 16.822C322.381 16.2713 322.493 15.688 322.493 15.072C322.493 14.4467 322.381 13.868 322.157 13.336C321.942 12.804 321.634 12.3373 321.233 11.936C320.841 11.5347 320.374 11.2267 319.833 11.012C319.301 10.788 318.722 10.676 318.097 10.676C317.462 10.676 316.874 10.788 316.333 11.012C315.792 11.236 315.32 11.5533 314.919 11.964C314.527 12.3653 314.219 12.832 313.995 13.364C313.771 13.896 313.659 14.4747 313.659 15.1C313.659 15.716 313.771 16.2947 313.995 16.836C314.219 17.368 314.527 17.8393 314.919 18.25C315.32 18.6513 315.787 18.964 316.319 19.188C316.86 19.412 317.439 19.524 318.055 19.524ZM318.195 18.012C317.635 18.012 317.136 17.8907 316.697 17.648C316.258 17.396 315.913 17.0507 315.661 16.612C315.409 16.1733 315.283 15.6693 315.283 15.1C315.283 14.5307 315.409 14.0267 315.661 13.588C315.913 13.1493 316.258 12.8087 316.697 12.566C317.136 12.314 317.635 12.188 318.195 12.188C318.671 12.188 319.1 12.286 319.483 12.482C319.875 12.6687 320.188 12.93 320.421 13.266L319.819 13.714C319.623 13.4433 319.385 13.2427 319.105 13.112C318.825 12.9813 318.517 12.916 318.181 12.916C317.78 12.916 317.42 13.0093 317.103 13.196C316.795 13.3733 316.548 13.6253 316.361 13.952C316.174 14.2787 316.081 14.6613 316.081 15.1C316.081 15.5387 316.174 15.9213 316.361 16.248C316.548 16.5747 316.795 16.8313 317.103 17.018C317.42 17.1953 317.78 17.284 318.181 17.284C318.517 17.284 318.825 17.2187 319.105 17.088C319.385 16.9573 319.623 16.7567 319.819 16.486L320.421 16.92C320.188 17.2653 319.875 17.536 319.483 17.732C319.1 17.9187 318.671 18.012 318.195 18.012ZM327.943 20V19.286L332.017 15.296C332.391 14.932 332.671 14.6147 332.857 14.344C333.044 14.064 333.17 13.8027 333.235 13.56C333.301 13.3173 333.333 13.0887 333.333 12.874C333.333 12.3047 333.137 11.8567 332.745 11.53C332.363 11.2033 331.793 11.04 331.037 11.04C330.459 11.04 329.945 11.1287 329.497 11.306C329.059 11.4833 328.681 11.7587 328.363 12.132L327.649 11.516C328.032 11.068 328.522 10.7227 329.119 10.48C329.717 10.2373 330.384 10.116 331.121 10.116C331.784 10.116 332.358 10.2233 332.843 10.438C333.329 10.6433 333.702 10.9467 333.963 11.348C334.234 11.7493 334.369 12.2207 334.369 12.762C334.369 13.0793 334.323 13.392 334.229 13.7C334.145 14.008 333.987 14.3347 333.753 14.68C333.529 15.016 333.198 15.3987 332.759 15.828L329.021 19.496L328.741 19.104H334.817V20H327.943ZM339.961 20.084C339.205 20.084 338.533 19.888 337.945 19.496C337.357 19.0947 336.895 18.5253 336.559 17.788C336.223 17.0413 336.055 16.1453 336.055 15.1C336.055 14.0547 336.223 13.1633 336.559 12.426C336.895 11.6793 337.357 11.11 337.945 10.718C338.533 10.3167 339.205 10.116 339.961 10.116C340.717 10.116 341.389 10.3167 341.977 10.718C342.565 11.11 343.027 11.6793 343.363 12.426C343.708 13.1633 343.881 14.0547 343.881 15.1C343.881 16.1453 343.708 17.0413 343.363 17.788C343.027 18.5253 342.565 19.0947 341.977 19.496C341.389 19.888 340.717 20.084 339.961 20.084ZM339.961 19.16C340.54 19.16 341.044 19.006 341.473 18.698C341.902 18.3807 342.238 17.9233 342.481 17.326C342.724 16.7193 342.845 15.9773 342.845 15.1C342.845 14.2227 342.724 13.4853 342.481 12.888C342.238 12.2813 341.902 11.824 341.473 11.516C341.044 11.1987 340.54 11.04 339.961 11.04C339.401 11.04 338.902 11.1987 338.463 11.516C338.024 11.824 337.684 12.2813 337.441 12.888C337.198 13.4853 337.077 14.2227 337.077 15.1C337.077 15.9773 337.198 16.7193 337.441 17.326C337.684 17.9233 338.024 18.3807 338.463 18.698C338.902 19.006 339.401 19.16 339.961 19.16ZM345.143 20V19.286L349.217 15.296C349.59 14.932 349.87 14.6147 350.057 14.344C350.243 14.064 350.369 13.8027 350.435 13.56C350.5 13.3173 350.533 13.0887 350.533 12.874C350.533 12.3047 350.337 11.8567 349.945 11.53C349.562 11.2033 348.993 11.04 348.237 11.04C347.658 11.04 347.145 11.1287 346.697 11.306C346.258 11.4833 345.88 11.7587 345.563 12.132L344.849 11.516C345.231 11.068 345.721 10.7227 346.319 10.48C346.916 10.2373 347.583 10.116 348.321 10.116C348.983 10.116 349.557 10.2233 350.043 10.438C350.528 10.6433 350.901 10.9467 351.163 11.348C351.433 11.7493 351.569 12.2207 351.569 12.762C351.569 13.0793 351.522 13.392 351.429 13.7C351.345 14.008 351.186 14.3347 350.953 14.68C350.729 15.016 350.397 15.3987 349.959 15.828L346.221 19.496L345.941 19.104H352.017V20H345.143ZM353.1 20V19.286L357.174 15.296C357.547 14.932 357.827 14.6147 358.014 14.344C358.2 14.064 358.326 13.8027 358.392 13.56C358.457 13.3173 358.49 13.0887 358.49 12.874C358.49 12.3047 358.294 11.8567 357.902 11.53C357.519 11.2033 356.95 11.04 356.194 11.04C355.615 11.04 355.102 11.1287 354.654 11.306C354.215 11.4833 353.837 11.7587 353.52 12.132L352.806 11.516C353.188 11.068 353.678 10.7227 354.276 10.48C354.873 10.2373 355.54 10.116 356.278 10.116C356.94 10.116 357.514 10.2233 358 10.438C358.485 10.6433 358.858 10.9467 359.12 11.348C359.39 11.7493 359.526 12.2207 359.526 12.762C359.526 13.0793 359.479 13.392 359.386 13.7C359.302 14.008 359.143 14.3347 358.91 14.68C358.686 15.016 358.354 15.3987 357.916 15.828L354.178 19.496L353.898 19.104H359.974V20H353.1ZM365.659 20.07C365.453 20.07 365.276 19.9953 365.127 19.846C364.987 19.6967 364.917 19.5147 364.917 19.3C364.917 19.076 364.987 18.894 365.127 18.754C365.276 18.614 365.453 18.544 365.659 18.544C365.864 18.544 366.037 18.614 366.177 18.754C366.326 18.894 366.401 19.076 366.401 19.3C366.401 19.5147 366.326 19.6967 366.177 19.846C366.037 19.9953 365.864 20.07 365.659 20.07ZM372.402 20V10.2H376.392C377.437 10.2 378.352 10.41 379.136 10.83C379.929 11.2407 380.545 11.8147 380.984 12.552C381.422 13.2893 381.642 14.1387 381.642 15.1C381.642 16.0613 381.422 16.9107 380.984 17.648C380.545 18.3853 379.929 18.964 379.136 19.384C378.352 19.7947 377.437 20 376.392 20H372.402ZM373.438 19.104H376.336C377.204 19.104 377.955 18.936 378.59 18.6C379.234 18.2547 379.733 17.7833 380.088 17.186C380.442 16.5793 380.62 15.884 380.62 15.1C380.62 14.3067 380.442 13.6113 380.088 13.014C379.733 12.4167 379.234 11.95 378.59 11.614C377.955 11.2687 377.204 11.096 376.336 11.096H373.438V19.104ZM386.88 20.07C386.115 20.07 385.443 19.9113 384.864 19.594C384.285 19.2673 383.833 18.824 383.506 18.264C383.179 17.6947 383.016 17.046 383.016 16.318C383.016 15.59 383.17 14.946 383.478 14.386C383.795 13.826 384.225 13.3873 384.766 13.07C385.317 12.7433 385.933 12.58 386.614 12.58C387.305 12.58 387.916 12.7387 388.448 13.056C388.989 13.364 389.414 13.8027 389.722 14.372C390.03 14.932 390.184 15.5807 390.184 16.318C390.184 16.3647 390.179 16.416 390.17 16.472C390.17 16.5187 390.17 16.57 390.17 16.626H383.772V15.884H389.638L389.246 16.178C389.246 15.646 389.129 15.1747 388.896 14.764C388.672 14.344 388.364 14.0173 387.972 13.784C387.58 13.5507 387.127 13.434 386.614 13.434C386.11 13.434 385.657 13.5507 385.256 13.784C384.855 14.0173 384.542 14.344 384.318 14.764C384.094 15.184 383.982 15.6647 383.982 16.206V16.36C383.982 16.92 384.103 17.4147 384.346 17.844C384.598 18.264 384.943 18.5953 385.382 18.838C385.83 19.0713 386.339 19.188 386.908 19.188C387.356 19.188 387.771 19.1087 388.154 18.95C388.546 18.7913 388.882 18.5487 389.162 18.222L389.722 18.866C389.395 19.258 388.985 19.5567 388.49 19.762C388.005 19.9673 387.468 20.07 386.88 20.07ZM394.181 20.07C393.575 20.07 393.001 19.986 392.459 19.818C391.918 19.6407 391.493 19.4213 391.185 19.16L391.633 18.376C391.932 18.6 392.315 18.796 392.781 18.964C393.248 19.1227 393.738 19.202 394.251 19.202C394.951 19.202 395.455 19.0947 395.763 18.88C396.071 18.656 396.225 18.362 396.225 17.998C396.225 17.7273 396.137 17.5173 395.959 17.368C395.791 17.2093 395.567 17.0927 395.287 17.018C395.007 16.934 394.695 16.864 394.349 16.808C394.004 16.752 393.659 16.6867 393.313 16.612C392.977 16.5373 392.669 16.43 392.389 16.29C392.109 16.1407 391.881 15.94 391.703 15.688C391.535 15.436 391.451 15.1 391.451 14.68C391.451 14.2787 391.563 13.9193 391.787 13.602C392.011 13.2847 392.338 13.0373 392.767 12.86C393.206 12.6733 393.738 12.58 394.363 12.58C394.839 12.58 395.315 12.6453 395.791 12.776C396.267 12.8973 396.659 13.0607 396.967 13.266L396.533 14.064C396.207 13.84 395.857 13.6813 395.483 13.588C395.11 13.4853 394.737 13.434 394.363 13.434C393.701 13.434 393.211 13.5507 392.893 13.784C392.585 14.008 392.431 14.2973 392.431 14.652C392.431 14.932 392.515 15.1513 392.683 15.31C392.861 15.4687 393.089 15.5947 393.369 15.688C393.659 15.772 393.971 15.842 394.307 15.898C394.653 15.954 394.993 16.024 395.329 16.108C395.675 16.1827 395.987 16.29 396.267 16.43C396.557 16.5607 396.785 16.752 396.953 17.004C397.131 17.2467 397.219 17.5687 397.219 17.97C397.219 18.3993 397.098 18.7727 396.855 19.09C396.622 19.398 396.277 19.6407 395.819 19.818C395.371 19.986 394.825 20.07 394.181 20.07ZM402.165 20.07C401.4 20.07 400.728 19.9113 400.149 19.594C399.571 19.2673 399.118 18.824 398.791 18.264C398.465 17.6947 398.301 17.046 398.301 16.318C398.301 15.59 398.455 14.946 398.763 14.386C399.081 13.826 399.51 13.3873 400.051 13.07C400.602 12.7433 401.218 12.58 401.899 12.58C402.59 12.58 403.201 12.7387 403.733 13.056C404.275 13.364 404.699 13.8027 405.007 14.372C405.315 14.932 405.469 15.5807 405.469 16.318C405.469 16.3647 405.465 16.416 405.455 16.472C405.455 16.5187 405.455 16.57 405.455 16.626H399.057V15.884H404.923L404.531 16.178C404.531 15.646 404.415 15.1747 404.181 14.764C403.957 14.344 403.649 14.0173 403.257 13.784C402.865 13.5507 402.413 13.434 401.899 13.434C401.395 13.434 400.943 13.5507 400.541 13.784C400.14 14.0173 399.827 14.344 399.603 14.764C399.379 15.184 399.267 15.6647 399.267 16.206V16.36C399.267 16.92 399.389 17.4147 399.631 17.844C399.883 18.264 400.229 18.5953 400.667 18.838C401.115 19.0713 401.624 19.188 402.193 19.188C402.641 19.188 403.057 19.1087 403.439 18.95C403.831 18.7913 404.167 18.5487 404.447 18.222L405.007 18.866C404.681 19.258 404.27 19.5567 403.775 19.762C403.29 19.9673 402.753 20.07 402.165 20.07ZM411.244 12.58C411.842 12.58 412.364 12.6967 412.812 12.93C413.27 13.154 413.624 13.4993 413.876 13.966C414.138 14.4327 414.268 15.0207 414.268 15.73V20H413.274V15.828C413.274 15.0533 413.078 14.47 412.686 14.078C412.304 13.6767 411.762 13.476 411.062 13.476C410.54 13.476 410.082 13.5833 409.69 13.798C409.308 14.0033 409.009 14.3067 408.794 14.708C408.589 15.1 408.486 15.576 408.486 16.136V20H407.492V12.65H408.444V14.666L408.29 14.288C408.524 13.756 408.897 13.3407 409.41 13.042C409.924 12.734 410.535 12.58 411.244 12.58ZM418.707 20L415.445 12.65H416.481L419.477 19.468H418.987L422.025 12.65H423.005L419.729 20H418.707ZM427.195 20.07C426.486 20.07 425.847 19.9113 425.277 19.594C424.717 19.2673 424.274 18.824 423.947 18.264C423.621 17.6947 423.457 17.046 423.457 16.318C423.457 15.5807 423.621 14.932 423.947 14.372C424.274 13.812 424.717 13.3733 425.277 13.056C425.837 12.7387 426.477 12.58 427.195 12.58C427.923 12.58 428.567 12.7387 429.127 13.056C429.697 13.3733 430.14 13.812 430.457 14.372C430.784 14.932 430.947 15.5807 430.947 16.318C430.947 17.046 430.784 17.6947 430.457 18.264C430.14 18.824 429.697 19.2673 429.127 19.594C428.558 19.9113 427.914 20.07 427.195 20.07ZM427.195 19.188C427.727 19.188 428.199 19.0713 428.609 18.838C429.02 18.5953 429.342 18.2593 429.575 17.83C429.818 17.3913 429.939 16.8873 429.939 16.318C429.939 15.7393 429.818 15.2353 429.575 14.806C429.342 14.3767 429.02 14.0453 428.609 13.812C428.199 13.5693 427.732 13.448 427.209 13.448C426.687 13.448 426.22 13.5693 425.809 13.812C425.399 14.0453 425.072 14.3767 424.829 14.806C424.587 15.2353 424.465 15.7393 424.465 16.318C424.465 16.8873 424.587 17.3913 424.829 17.83C425.072 18.2593 425.399 18.5953 425.809 18.838C426.22 19.0713 426.682 19.188 427.195 19.188ZM432.977 20V9.612H433.971V20H432.977ZM438.627 20L435.365 12.65H436.401L439.397 19.468H438.907L441.945 12.65H442.925L439.649 20H438.627ZM444.324 20V12.65H445.318V20H444.324ZM444.828 11.026C444.623 11.026 444.45 10.956 444.31 10.816C444.17 10.676 444.1 10.508 444.1 10.312C444.1 10.116 444.17 9.95267 444.31 9.822C444.45 9.682 444.623 9.612 444.828 9.612C445.034 9.612 445.206 9.67733 445.346 9.808C445.486 9.93867 445.556 10.102 445.556 10.298C445.556 10.5033 445.486 10.676 445.346 10.816C445.216 10.956 445.043 11.026 444.828 11.026ZM451.01 20.07C450.31 20.07 449.68 19.9113 449.12 19.594C448.57 19.2767 448.136 18.838 447.818 18.278C447.501 17.7087 447.342 17.0553 447.342 16.318C447.342 15.5713 447.501 14.918 447.818 14.358C448.136 13.798 448.57 13.364 449.12 13.056C449.68 12.7387 450.31 12.58 451.01 12.58C451.654 12.58 452.228 12.7247 452.732 13.014C453.246 13.3033 453.652 13.728 453.95 14.288C454.258 14.8387 454.412 15.5153 454.412 16.318C454.412 17.1113 454.263 17.788 453.964 18.348C453.666 18.908 453.26 19.3373 452.746 19.636C452.242 19.9253 451.664 20.07 451.01 20.07ZM451.08 19.188C451.603 19.188 452.07 19.0713 452.48 18.838C452.9 18.5953 453.227 18.2593 453.46 17.83C453.703 17.3913 453.824 16.8873 453.824 16.318C453.824 15.7393 453.703 15.2353 453.46 14.806C453.227 14.3767 452.9 14.0453 452.48 13.812C452.07 13.5693 451.603 13.448 451.08 13.448C450.567 13.448 450.105 13.5693 449.694 13.812C449.284 14.0453 448.957 14.3767 448.714 14.806C448.472 15.2353 448.35 15.7393 448.35 16.318C448.35 16.8873 448.472 17.3913 448.714 17.83C448.957 18.2593 449.284 18.5953 449.694 18.838C450.105 19.0713 450.567 19.188 451.08 19.188ZM453.852 20V17.788L453.95 16.304L453.81 14.82V9.612H454.804V20H453.852ZM460.569 20.07C459.859 20.07 459.22 19.9113 458.651 19.594C458.091 19.2673 457.647 18.824 457.321 18.264C456.994 17.6947 456.831 17.046 456.831 16.318C456.831 15.5807 456.994 14.932 457.321 14.372C457.647 13.812 458.091 13.3733 458.651 13.056C459.211 12.7387 459.85 12.58 460.569 12.58C461.297 12.58 461.941 12.7387 462.501 13.056C463.07 13.3733 463.513 13.812 463.831 14.372C464.157 14.932 464.321 15.5807 464.321 16.318C464.321 17.046 464.157 17.6947 463.831 18.264C463.513 18.824 463.07 19.2673 462.501 19.594C461.931 19.9113 461.287 20.07 460.569 20.07ZM460.569 19.188C461.101 19.188 461.572 19.0713 461.983 18.838C462.393 18.5953 462.715 18.2593 462.949 17.83C463.191 17.3913 463.313 16.8873 463.313 16.318C463.313 15.7393 463.191 15.2353 462.949 14.806C462.715 14.3767 462.393 14.0453 461.983 13.812C461.572 13.5693 461.105 13.448 460.583 13.448C460.06 13.448 459.593 13.5693 459.183 13.812C458.772 14.0453 458.445 14.3767 458.203 14.806C457.96 15.2353 457.839 15.7393 457.839 16.318C457.839 16.8873 457.96 17.3913 458.203 17.83C458.445 18.2593 458.772 18.5953 459.183 18.838C459.593 19.0713 460.055 19.188 460.569 19.188ZM473.808 20.07C473.173 20.07 472.599 19.9253 472.086 19.636C471.573 19.3373 471.162 18.9127 470.854 18.362C470.555 17.802 470.406 17.1207 470.406 16.318C470.406 15.5153 470.555 14.8387 470.854 14.288C471.153 13.728 471.559 13.3033 472.072 13.014C472.585 12.7247 473.164 12.58 473.808 12.58C474.508 12.58 475.133 12.7387 475.684 13.056C476.244 13.364 476.683 13.8027 477 14.372C477.317 14.932 477.476 15.5807 477.476 16.318C477.476 17.0647 477.317 17.718 477 18.278C476.683 18.838 476.244 19.2767 475.684 19.594C475.133 19.9113 474.508 20.07 473.808 20.07ZM470.014 22.716V12.65H470.966V14.862L470.868 16.332L471.008 17.816V22.716H470.014ZM473.738 19.188C474.261 19.188 474.727 19.0713 475.138 18.838C475.549 18.5953 475.875 18.2593 476.118 17.83C476.361 17.3913 476.482 16.8873 476.482 16.318C476.482 15.7487 476.361 15.2493 476.118 14.82C475.875 14.3907 475.549 14.0547 475.138 13.812C474.727 13.5693 474.261 13.448 473.738 13.448C473.215 13.448 472.744 13.5693 472.324 13.812C471.913 14.0547 471.587 14.3907 471.344 14.82C471.111 15.2493 470.994 15.7487 470.994 16.318C470.994 16.8873 471.111 17.3913 471.344 17.83C471.587 18.2593 471.913 18.5953 472.324 18.838C472.744 19.0713 473.215 19.188 473.738 19.188ZM482.624 20.07C481.859 20.07 481.187 19.9113 480.608 19.594C480.03 19.2673 479.577 18.824 479.25 18.264C478.924 17.6947 478.76 17.046 478.76 16.318C478.76 15.59 478.914 14.946 479.222 14.386C479.54 13.826 479.969 13.3873 480.51 13.07C481.061 12.7433 481.677 12.58 482.358 12.58C483.049 12.58 483.66 12.7387 484.192 13.056C484.734 13.364 485.158 13.8027 485.466 14.372C485.774 14.932 485.928 15.5807 485.928 16.318C485.928 16.3647 485.924 16.416 485.914 16.472C485.914 16.5187 485.914 16.57 485.914 16.626H479.516V15.884H485.382L484.99 16.178C484.99 15.646 484.874 15.1747 484.64 14.764C484.416 14.344 484.108 14.0173 483.716 13.784C483.324 13.5507 482.872 13.434 482.358 13.434C481.854 13.434 481.402 13.5507 481 13.784C480.599 14.0173 480.286 14.344 480.062 14.764C479.838 15.184 479.726 15.6647 479.726 16.206V16.36C479.726 16.92 479.848 17.4147 480.09 17.844C480.342 18.264 480.688 18.5953 481.126 18.838C481.574 19.0713 482.083 19.188 482.652 19.188C483.1 19.188 483.516 19.1087 483.898 18.95C484.29 18.7913 484.626 18.5487 484.906 18.222L485.466 18.866C485.14 19.258 484.729 19.5567 484.234 19.762C483.749 19.9673 483.212 20.07 482.624 20.07ZM487.951 20V9.612H488.945V20H487.951ZM496.317 20V18.376L496.275 18.11V15.394C496.275 14.7687 496.098 14.288 495.743 13.952C495.398 13.616 494.88 13.448 494.189 13.448C493.713 13.448 493.261 13.5273 492.831 13.686C492.402 13.8447 492.038 14.0547 491.739 14.316L491.291 13.574C491.665 13.2567 492.113 13.014 492.635 12.846C493.158 12.6687 493.709 12.58 494.287 12.58C495.239 12.58 495.972 12.818 496.485 13.294C497.008 13.7607 497.269 14.4747 497.269 15.436V20H496.317ZM493.783 20.07C493.233 20.07 492.752 19.9813 492.341 19.804C491.94 19.6173 491.632 19.3653 491.417 19.048C491.203 18.7213 491.095 18.348 491.095 17.928C491.095 17.5453 491.184 17.2 491.361 16.892C491.548 16.5747 491.847 16.3227 492.257 16.136C492.677 15.94 493.237 15.842 493.937 15.842H496.471V16.584H493.965C493.256 16.584 492.761 16.71 492.481 16.962C492.211 17.214 492.075 17.5267 492.075 17.9C492.075 18.32 492.239 18.656 492.565 18.908C492.892 19.16 493.349 19.286 493.937 19.286C494.497 19.286 494.978 19.16 495.379 18.908C495.79 18.6467 496.089 18.2733 496.275 17.788L496.499 18.474C496.313 18.9593 495.986 19.3467 495.519 19.636C495.062 19.9253 494.483 20.07 493.783 20.07ZM505.495 14.148H510.213V15.912H505.495V14.148ZM505.663 18.18H510.997V20H503.409V10.2H510.815V12.02H505.663V18.18ZM514.608 20.168C513.945 20.168 513.334 20.0467 512.774 19.804C512.223 19.552 511.77 19.1973 511.416 18.74L512.676 17.228C512.946 17.5827 513.231 17.8533 513.53 18.04C513.828 18.2173 514.15 18.306 514.496 18.306C515.42 18.306 515.882 17.7647 515.882 16.682V12.02H512.438V10.2H518.136V16.556C518.136 17.7693 517.837 18.6747 517.24 19.272C516.642 19.8693 515.765 20.168 514.608 20.168ZM522.462 14.148H527.18V15.912H522.462V14.148ZM522.63 18.18H527.964V20H520.376V10.2H527.782V12.02H522.63V18.18ZM534.458 20.168C533.702 20.168 532.998 20.0467 532.344 19.804C531.7 19.552 531.14 19.1973 530.664 18.74C530.188 18.2827 529.815 17.746 529.544 17.13C529.283 16.514 529.152 15.8373 529.152 15.1C529.152 14.3627 529.283 13.686 529.544 13.07C529.815 12.454 530.188 11.9173 530.664 11.46C531.15 11.0027 531.714 10.6527 532.358 10.41C533.002 10.158 533.707 10.032 534.472 10.032C535.322 10.032 536.087 10.1813 536.768 10.48C537.459 10.7693 538.038 11.1987 538.504 11.768L537.048 13.112C536.712 12.7293 536.339 12.4447 535.928 12.258C535.518 12.062 535.07 11.964 534.584 11.964C534.127 11.964 533.707 12.0387 533.324 12.188C532.942 12.3373 532.61 12.552 532.33 12.832C532.05 13.112 531.831 13.4433 531.672 13.826C531.523 14.2087 531.448 14.6333 531.448 15.1C531.448 15.5667 531.523 15.9913 531.672 16.374C531.831 16.7567 532.05 17.088 532.33 17.368C532.61 17.648 532.942 17.8627 533.324 18.012C533.707 18.1613 534.127 18.236 534.584 18.236C535.07 18.236 535.518 18.1427 535.928 17.956C536.339 17.76 536.712 17.466 537.048 17.074L538.504 18.418C538.038 18.9873 537.459 19.4213 536.768 19.72C536.087 20.0187 535.317 20.168 534.458 20.168ZM541.97 20V12.048H538.834V10.2H547.374V12.048H544.238V20H541.97Z" fill="#595959"/>
<path d="M562.232 13.0944V18.1942H565.978L562.232 13.0944Z" fill="#595959"/>
<path d="M566 19.0322H551V21.437H566V19.0322Z" fill="#595959"/>
<path d="M558.497 8V13.0943H562.243L558.497 8Z" fill="#595959"/>
<path d="M558.497 8V13.0943H554.757L558.497 8Z" fill="#595959"/>
<path d="M558.497 18.1942V13.0944H562.243L558.497 18.1942Z" fill="#595959"/>
<path d="M558.497 18.1942V13.0944H554.757L558.497 18.1942Z" fill="#595959"/>
<path d="M562.243 13.0944V18.1942H558.497L562.243 13.0944Z" fill="#595959"/>
<path d="M554.757 13.0944V18.1942H558.497L554.757 13.0944Z" fill="#595959"/>
<path d="M554.757 13.0944V18.1942H551.011L554.757 13.0944Z" fill="#595959"/>
</svg>
