<svg width="20" height="21" viewBox="0 0 20 21" fill="none" xmlns="http://www.w3.org/2000/svg">
<path d="M19.7445 12.9565L17.9502 11.9203C18.1313 10.9431 18.1313 9.94064 17.9502 8.96343L19.7445 7.92724C19.9509 7.80931 20.0436 7.565 19.9762 7.33755C19.5087 5.83803 18.7126 4.48173 17.6722 3.35288C17.5121 3.18019 17.251 3.13807 17.0488 3.25601L15.2544 4.29219C14.5005 3.64352 13.6328 3.14228 12.6935 2.81373V0.745584C12.6935 0.509706 12.5292 0.303312 12.2975 0.252767C10.7517 -0.0926271 9.16793 -0.0757786 7.6979 0.252767C7.46623 0.303312 7.30196 0.509706 7.30196 0.745584V2.81795C6.36687 3.1507 5.49917 3.65195 4.74099 4.2964L2.95084 3.26022C2.74445 3.14228 2.48751 3.18019 2.32745 3.3571C1.28706 4.48173 0.490969 5.83803 0.0234244 7.34176C-0.0481816 7.56921 0.0486971 7.81352 0.255091 7.93146L2.04945 8.96764C1.86833 9.94485 1.86833 10.9473 2.04945 11.9245L0.255091 12.9607C0.0486971 13.0787 -0.0439694 13.323 0.0234244 13.5504C0.490969 15.0499 1.28706 16.4062 2.32745 17.5351C2.48751 17.7078 2.74866 17.7499 2.95084 17.632L4.7452 16.5958C5.49917 17.2444 6.36687 17.7457 7.30617 18.0742V20.1466C7.30617 20.3825 7.47044 20.5889 7.70211 20.6394C9.24796 20.9848 10.8317 20.968 12.3017 20.6394C12.5334 20.5889 12.6977 20.3825 12.6977 20.1466V18.0742C13.6328 17.7415 14.5005 17.2402 15.2586 16.5958L17.053 17.632C17.2594 17.7499 17.5163 17.712 17.6764 17.5351C18.7168 16.4104 19.5129 15.0541 19.9804 13.5504C20.0436 13.3188 19.9509 13.0745 19.7445 12.9565ZM9.99771 13.8116C8.14017 13.8116 6.62802 12.2994 6.62802 10.4419C6.62802 8.58433 8.14017 7.07218 9.99771 7.07218C11.8553 7.07218 13.3674 8.58433 13.3674 10.4419C13.3674 12.2994 11.8553 13.8116 9.99771 13.8116Z" fill="#606060"/>
</svg>
