<svg width="22" height="21" viewBox="0 0 22 21" fill="none" xmlns="http://www.w3.org/2000/svg">
<g clip-path="url(#clip0_1001_2724)">
<path d="M16.0674 13.4998C17.3923 11.7772 17.9858 9.64137 17.729 7.51975C17.4722 5.39812 16.384 3.44712 14.6823 2.05707C12.9805 0.667011 10.7907 -0.059584 8.55083 0.0226468C6.31096 0.104878 4.18628 0.98987 2.60185 2.50057C1.01741 4.01127 0.0900847 6.03626 0.00538151 8.17042C-0.0793217 10.3046 0.684849 12.3905 2.14501 14.0109C3.60517 15.6313 5.65364 16.6667 7.88059 16.9098C10.1075 17.153 12.3487 16.5861 14.1558 15.3224H14.1544C14.1955 15.3746 14.2393 15.4241 14.2885 15.4723L19.5567 20.4917C19.8132 20.7364 20.1613 20.8739 20.5243 20.874C20.8873 20.8741 21.2354 20.7368 21.4922 20.4924C21.7489 20.2479 21.8933 19.9163 21.8934 19.5705C21.8935 19.2246 21.7495 18.8929 21.4929 18.6483L16.2247 13.6289C16.1758 13.5817 16.1232 13.5381 16.0674 13.4985V13.4998ZM16.4204 8.48823C16.4204 9.42988 16.2258 10.3623 15.8475 11.2323C15.4693 12.1023 14.915 12.8927 14.2161 13.5586C13.5173 14.2244 12.6876 14.7526 11.7745 15.113C10.8615 15.4733 9.88282 15.6588 8.89451 15.6588C7.90619 15.6588 6.92755 15.4733 6.01447 15.113C5.10138 14.7526 4.27173 14.2244 3.57289 13.5586C2.87404 12.8927 2.31969 12.1023 1.94147 11.2323C1.56326 10.3623 1.3686 9.42988 1.3686 8.48823C1.3686 6.58648 2.1615 4.76262 3.57289 3.41789C4.98427 2.07315 6.89851 1.31768 8.89451 1.31768C10.8905 1.31768 12.8047 2.07315 14.2161 3.41789C15.6275 4.76262 16.4204 6.58648 16.4204 8.48823V8.48823Z" fill="black"/>
</g>
<defs>
<clipPath id="clip0_1001_2724">
<rect width="21.8935" height="20.8598" fill="white"/>
</clipPath>
</defs>
</svg>
