<svg width="71" height="71" viewBox="0 0 71 71" fill="none" xmlns="http://www.w3.org/2000/svg">
<path d="M35.5001 37.3934C34.4435 37.3975 33.4176 37.7485 32.5799 38.3925C31.7422 39.0364 31.1393 39.9377 30.8637 40.9577C30.5881 41.9777 30.6552 43.06 31.0545 44.0382C31.4539 45.0164 32.1635 45.8363 33.0743 46.3719V53.2501H37.9851V46.3719C38.7056 45.9457 39.3036 45.3403 39.721 44.6146C40.1383 43.8888 40.3607 43.0674 40.3666 42.2303V42.2303C40.3666 41.5926 40.2405 40.9612 39.9956 40.3724C39.7506 39.7837 39.3917 39.2491 38.9394 38.7996C38.4871 38.3501 37.9504 37.9944 37.3602 37.7531C36.7699 37.5117 36.1378 37.3895 35.5001 37.3934V37.3934Z" stroke="#F8F8F8" stroke-linecap="round" stroke-linejoin="round"/>
<path d="M53.6787 26.2849H17.306C13.7769 26.2849 10.916 29.1458 10.916 32.6749V57.9539C10.916 61.483 13.7769 64.3439 17.306 64.3439H53.6787C57.2078 64.3439 60.0687 61.483 60.0687 57.9539V32.6749C60.0687 29.1458 57.2078 26.2849 53.6787 26.2849Z" stroke="#F8F8F8" stroke-linecap="round" stroke-linejoin="round"/>
<path d="M19.7471 26.2848V22.4242C19.7471 18.2423 21.4083 14.2316 24.3654 11.2746C27.3224 8.31751 31.3331 6.65625 35.515 6.65625C39.6969 6.65625 43.7075 8.31751 46.6646 11.2746C49.6216 14.2316 51.2829 18.2423 51.2829 22.4242V26.2848" stroke="#F8F8F8" stroke-linecap="round" stroke-linejoin="round"/>
</svg>
