<svg width="319" height="14" viewBox="0 0 319 14" fill="none" xmlns="http://www.w3.org/2000/svg">
<path d="M2.67476 5.148H7.39276V6.912H2.67476V5.148ZM2.84276 9.18H8.17676V11H0.588758V1.2H7.99476V3.02H2.84276V9.18ZM11.7873 11.168C11.1247 11.168 10.5133 11.0467 9.95334 10.804C9.40267 10.552 8.95 10.1973 8.59534 9.74L9.85534 8.228C10.126 8.58267 10.4107 8.85333 10.7093 9.04C11.008 9.21733 11.33 9.306 11.6753 9.306C12.5993 9.306 13.0613 8.76467 13.0613 7.682V3.02H9.61734V1.2H15.3153V7.556C15.3153 8.76933 15.0167 9.67467 14.4193 10.272C13.822 10.8693 12.9447 11.168 11.7873 11.168ZM19.6416 5.148H24.3596V6.912H19.6416V5.148ZM19.8096 9.18H25.1436V11H17.5556V1.2H24.9616V3.02H19.8096V9.18ZM31.6381 11.168C30.8821 11.168 30.1775 11.0467 29.5241 10.804C28.8801 10.552 28.3201 10.1973 27.8441 9.74C27.3681 9.28267 26.9948 8.746 26.7241 8.13C26.4628 7.514 26.3321 6.83733 26.3321 6.1C26.3321 5.36267 26.4628 4.686 26.7241 4.07C26.9948 3.454 27.3681 2.91733 27.8441 2.46C28.3295 2.00267 28.8941 1.65267 29.5381 1.41C30.1821 1.158 30.8868 1.032 31.6521 1.032C32.5015 1.032 33.2668 1.18133 33.9481 1.48C34.6388 1.76933 35.2175 2.19867 35.6841 2.768L34.2281 4.112C33.8921 3.72933 33.5188 3.44467 33.1081 3.258C32.6975 3.062 32.2495 2.964 31.7641 2.964C31.3068 2.964 30.8868 3.03867 30.5041 3.188C30.1215 3.33733 29.7901 3.552 29.5101 3.832C29.2301 4.112 29.0108 4.44333 28.8521 4.826C28.7028 5.20867 28.6281 5.63333 28.6281 6.1C28.6281 6.56667 28.7028 6.99133 28.8521 7.374C29.0108 7.75667 29.2301 8.088 29.5101 8.368C29.7901 8.648 30.1215 8.86267 30.5041 9.012C30.8868 9.16133 31.3068 9.236 31.7641 9.236C32.2495 9.236 32.6975 9.14267 33.1081 8.956C33.5188 8.76 33.8921 8.466 34.2281 8.074L35.6841 9.418C35.2175 9.98733 34.6388 10.4213 33.9481 10.72C33.2668 11.0187 32.4968 11.168 31.6381 11.168ZM39.15 11V3.048H36.014V1.2H44.554V3.048H41.418V11H39.15ZM54.4291 11.168C53.6731 11.168 52.9685 11.0467 52.3151 10.804C51.6711 10.552 51.1111 10.1973 50.6351 9.74C50.1591 9.28267 49.7858 8.746 49.5151 8.13C49.2538 7.514 49.1231 6.83733 49.1231 6.1C49.1231 5.36267 49.2538 4.686 49.5151 4.07C49.7858 3.454 50.1591 2.91733 50.6351 2.46C51.1205 2.00267 51.6851 1.65267 52.3291 1.41C52.9731 1.158 53.6778 1.032 54.4431 1.032C55.2925 1.032 56.0578 1.18133 56.7391 1.48C57.4298 1.76933 58.0085 2.19867 58.4751 2.768L57.0191 4.112C56.6831 3.72933 56.3098 3.44467 55.8991 3.258C55.4885 3.062 55.0405 2.964 54.5551 2.964C54.0978 2.964 53.6778 3.03867 53.2951 3.188C52.9125 3.33733 52.5811 3.552 52.3011 3.832C52.0211 4.112 51.8018 4.44333 51.6431 4.826C51.4938 5.20867 51.4191 5.63333 51.4191 6.1C51.4191 6.56667 51.4938 6.99133 51.6431 7.374C51.8018 7.75667 52.0211 8.088 52.3011 8.368C52.5811 8.648 52.9125 8.86267 53.2951 9.012C53.6778 9.16133 54.0978 9.236 54.5551 9.236C55.0405 9.236 55.4885 9.14267 55.8991 8.956C56.3098 8.76 56.6831 8.466 57.0191 8.074L58.4751 9.418C58.0085 9.98733 57.4298 10.4213 56.7391 10.72C56.0578 11.0187 55.2878 11.168 54.4291 11.168ZM62.9057 11L58.6777 1.2H61.1277L64.8237 9.88H63.3817L67.1337 1.2H69.3877L65.1457 11H62.9057ZM70.2059 11V1.2H74.9939C76.2259 1.2 77.1499 1.43333 77.7659 1.9C78.3913 2.36667 78.7039 2.98267 78.7039 3.748C78.7039 4.26133 78.5779 4.70933 78.3259 5.092C78.0739 5.46533 77.7286 5.75467 77.2899 5.96C76.8513 6.16533 76.3473 6.268 75.7779 6.268L76.0439 5.694C76.6599 5.694 77.2059 5.79667 77.6819 6.002C78.1579 6.198 78.5266 6.492 78.7879 6.884C79.0586 7.276 79.1939 7.75667 79.1939 8.326C79.1939 9.166 78.8626 9.824 78.1999 10.3C77.5373 10.7667 76.5619 11 75.2739 11H70.2059ZM72.4599 9.292H75.1059C75.6939 9.292 76.1373 9.19867 76.4359 9.012C76.7439 8.816 76.8979 8.508 76.8979 8.088C76.8979 7.67733 76.7439 7.374 76.4359 7.178C76.1373 6.97267 75.6939 6.87 75.1059 6.87H72.2919V5.218H74.7139C75.2646 5.218 75.6846 5.12467 75.9739 4.938C76.2726 4.742 76.4219 4.448 76.4219 4.056C76.4219 3.67333 76.2726 3.38867 75.9739 3.202C75.6846 3.006 75.2646 2.908 74.7139 2.908H72.4599V9.292ZM89.0691 11.042C88.3691 11.042 87.7204 10.916 87.1231 10.664C86.5258 10.412 86.0031 10.062 85.5551 9.614C85.1071 9.15667 84.7571 8.62933 84.5051 8.032C84.2624 7.43467 84.1411 6.79067 84.1411 6.1C84.1411 5.40933 84.2671 4.76533 84.5191 4.168C84.7711 3.57067 85.1211 3.048 85.5691 2.6C86.0171 2.14267 86.5398 1.788 87.1371 1.536C87.7438 1.284 88.3971 1.158 89.0971 1.158C89.7971 1.158 90.4458 1.284 91.0431 1.536C91.6498 1.77867 92.1724 2.124 92.6111 2.572C93.0591 3.02 93.4044 3.54267 93.6471 4.14C93.8991 4.728 94.0251 5.372 94.0251 6.072C94.0251 6.772 93.8991 7.42533 93.6471 8.032C93.3951 8.62933 93.0404 9.15667 92.5831 9.614C92.1351 10.062 91.6124 10.412 91.0151 10.664C90.4178 10.916 89.7691 11.042 89.0691 11.042ZM89.0551 10.524C89.6898 10.524 90.2731 10.412 90.8051 10.188C91.3371 9.95467 91.8038 9.63733 92.2051 9.236C92.6158 8.83467 92.9331 8.36333 93.1571 7.822C93.3811 7.27133 93.4931 6.688 93.4931 6.072C93.4931 5.44667 93.3811 4.868 93.1571 4.336C92.9424 3.804 92.6344 3.33733 92.2331 2.936C91.8411 2.53467 91.3744 2.22667 90.8331 2.012C90.3011 1.788 89.7224 1.676 89.0971 1.676C88.4624 1.676 87.8744 1.788 87.3331 2.012C86.7918 2.236 86.3204 2.55333 85.9191 2.964C85.5271 3.36533 85.2191 3.832 84.9951 4.364C84.7711 4.896 84.6591 5.47467 84.6591 6.1C84.6591 6.716 84.7711 7.29467 84.9951 7.836C85.2191 8.368 85.5271 8.83933 85.9191 9.25C86.3204 9.65133 86.7871 9.964 87.3191 10.188C87.8604 10.412 88.4391 10.524 89.0551 10.524ZM89.1951 9.012C88.6351 9.012 88.1358 8.89067 87.6971 8.648C87.2584 8.396 86.9131 8.05067 86.6611 7.612C86.4091 7.17333 86.2831 6.66933 86.2831 6.1C86.2831 5.53067 86.4091 5.02667 86.6611 4.588C86.9131 4.14933 87.2584 3.80867 87.6971 3.566C88.1358 3.314 88.6351 3.188 89.1951 3.188C89.6711 3.188 90.1004 3.286 90.4831 3.482C90.8751 3.66867 91.1878 3.93 91.4211 4.266L90.8191 4.714C90.6231 4.44333 90.3851 4.24267 90.1051 4.112C89.8251 3.98133 89.5171 3.916 89.1811 3.916C88.7798 3.916 88.4204 4.00933 88.1031 4.196C87.7951 4.37333 87.5478 4.62533 87.3611 4.952C87.1744 5.27867 87.0811 5.66133 87.0811 6.1C87.0811 6.53867 87.1744 6.92133 87.3611 7.248C87.5478 7.57467 87.7951 7.83133 88.1031 8.018C88.4204 8.19533 88.7798 8.284 89.1811 8.284C89.5171 8.284 89.8251 8.21867 90.1051 8.088C90.3851 7.95733 90.6231 7.75667 90.8191 7.486L91.4211 7.92C91.1878 8.26533 90.8751 8.536 90.4831 8.732C90.1004 8.91867 89.6711 9.012 89.1951 9.012ZM98.9435 11V10.286L103.017 6.296C103.391 5.932 103.671 5.61467 103.857 5.344C104.044 5.064 104.17 4.80267 104.235 4.56C104.301 4.31733 104.333 4.08867 104.333 3.874C104.333 3.30467 104.137 2.85667 103.745 2.53C103.363 2.20333 102.793 2.04 102.037 2.04C101.459 2.04 100.945 2.12867 100.497 2.306C100.059 2.48333 99.6808 2.75867 99.3635 3.132L98.6495 2.516C99.0321 2.068 99.5221 1.72267 100.119 1.48C100.717 1.23733 101.384 1.116 102.121 1.116C102.784 1.116 103.358 1.22333 103.843 1.438C104.329 1.64333 104.702 1.94667 104.963 2.348C105.234 2.74933 105.369 3.22067 105.369 3.762C105.369 4.07933 105.323 4.392 105.229 4.7C105.145 5.008 104.987 5.33467 104.753 5.68C104.529 6.016 104.198 6.39867 103.759 6.828L100.021 10.496L99.7415 10.104H105.817V11H98.9435ZM110.961 11.084C110.205 11.084 109.533 10.888 108.945 10.496C108.357 10.0947 107.895 9.52533 107.559 8.788C107.223 8.04133 107.055 7.14533 107.055 6.1C107.055 5.05467 107.223 4.16333 107.559 3.426C107.895 2.67933 108.357 2.11 108.945 1.718C109.533 1.31667 110.205 1.116 110.961 1.116C111.717 1.116 112.389 1.31667 112.977 1.718C113.565 2.11 114.027 2.67933 114.363 3.426C114.708 4.16333 114.881 5.05467 114.881 6.1C114.881 7.14533 114.708 8.04133 114.363 8.788C114.027 9.52533 113.565 10.0947 112.977 10.496C112.389 10.888 111.717 11.084 110.961 11.084ZM110.961 10.16C111.54 10.16 112.044 10.006 112.473 9.698C112.902 9.38067 113.238 8.92333 113.481 8.326C113.724 7.71933 113.845 6.97733 113.845 6.1C113.845 5.22267 113.724 4.48533 113.481 3.888C113.238 3.28133 112.902 2.824 112.473 2.516C112.044 2.19867 111.54 2.04 110.961 2.04C110.401 2.04 109.902 2.19867 109.463 2.516C109.024 2.824 108.684 3.28133 108.441 3.888C108.198 4.48533 108.077 5.22267 108.077 6.1C108.077 6.97733 108.198 7.71933 108.441 8.326C108.684 8.92333 109.024 9.38067 109.463 9.698C109.902 10.006 110.401 10.16 110.961 10.16ZM116.143 11V10.286L120.217 6.296C120.59 5.932 120.87 5.61467 121.057 5.344C121.243 5.064 121.369 4.80267 121.435 4.56C121.5 4.31733 121.533 4.08867 121.533 3.874C121.533 3.30467 121.337 2.85667 120.945 2.53C120.562 2.20333 119.993 2.04 119.237 2.04C118.658 2.04 118.145 2.12867 117.697 2.306C117.258 2.48333 116.88 2.75867 116.563 3.132L115.849 2.516C116.231 2.068 116.721 1.72267 117.319 1.48C117.916 1.23733 118.583 1.116 119.321 1.116C119.983 1.116 120.557 1.22333 121.043 1.438C121.528 1.64333 121.901 1.94667 122.163 2.348C122.433 2.74933 122.569 3.22067 122.569 3.762C122.569 4.07933 122.522 4.392 122.429 4.7C122.345 5.008 122.186 5.33467 121.953 5.68C121.729 6.016 121.397 6.39867 120.959 6.828L117.221 10.496L116.941 10.104H123.017V11H116.143ZM124.1 11V10.286L128.174 6.296C128.547 5.932 128.827 5.61467 129.014 5.344C129.2 5.064 129.326 4.80267 129.392 4.56C129.457 4.31733 129.49 4.08867 129.49 3.874C129.49 3.30467 129.294 2.85667 128.902 2.53C128.519 2.20333 127.95 2.04 127.194 2.04C126.615 2.04 126.102 2.12867 125.654 2.306C125.215 2.48333 124.837 2.75867 124.52 3.132L123.806 2.516C124.188 2.068 124.678 1.72267 125.276 1.48C125.873 1.23733 126.54 1.116 127.278 1.116C127.94 1.116 128.514 1.22333 129 1.438C129.485 1.64333 129.858 1.94667 130.12 2.348C130.39 2.74933 130.526 3.22067 130.526 3.762C130.526 4.07933 130.479 4.392 130.386 4.7C130.302 5.008 130.143 5.33467 129.91 5.68C129.686 6.016 129.354 6.39867 128.916 6.828L125.178 10.496L124.898 10.104H130.974V11H124.1ZM136.659 11.07C136.453 11.07 136.276 10.9953 136.127 10.846C135.987 10.6967 135.917 10.5147 135.917 10.3C135.917 10.076 135.987 9.894 136.127 9.754C136.276 9.614 136.453 9.544 136.659 9.544C136.864 9.544 137.037 9.614 137.177 9.754C137.326 9.894 137.401 10.076 137.401 10.3C137.401 10.5147 137.326 10.6967 137.177 10.846C137.037 10.9953 136.864 11.07 136.659 11.07ZM143.402 11V1.2H147.392C148.437 1.2 149.352 1.41 150.136 1.83C150.929 2.24067 151.545 2.81467 151.984 3.552C152.422 4.28933 152.642 5.13867 152.642 6.1C152.642 7.06133 152.422 7.91067 151.984 8.648C151.545 9.38533 150.929 9.964 150.136 10.384C149.352 10.7947 148.437 11 147.392 11H143.402ZM144.438 10.104H147.336C148.204 10.104 148.955 9.936 149.59 9.6C150.234 9.25467 150.733 8.78333 151.088 8.186C151.442 7.57933 151.62 6.884 151.62 6.1C151.62 5.30667 151.442 4.61133 151.088 4.014C150.733 3.41667 150.234 2.95 149.59 2.614C148.955 2.26867 148.204 2.096 147.336 2.096H144.438V10.104ZM157.88 11.07C157.115 11.07 156.443 10.9113 155.864 10.594C155.285 10.2673 154.833 9.824 154.506 9.264C154.179 8.69467 154.016 8.046 154.016 7.318C154.016 6.59 154.17 5.946 154.478 5.386C154.795 4.826 155.225 4.38733 155.766 4.07C156.317 3.74333 156.933 3.58 157.614 3.58C158.305 3.58 158.916 3.73867 159.448 4.056C159.989 4.364 160.414 4.80267 160.722 5.372C161.03 5.932 161.184 6.58067 161.184 7.318C161.184 7.36467 161.179 7.416 161.17 7.472C161.17 7.51867 161.17 7.57 161.17 7.626H154.772V6.884H160.638L160.246 7.178C160.246 6.646 160.129 6.17467 159.896 5.764C159.672 5.344 159.364 5.01733 158.972 4.784C158.58 4.55067 158.127 4.434 157.614 4.434C157.11 4.434 156.657 4.55067 156.256 4.784C155.855 5.01733 155.542 5.344 155.318 5.764C155.094 6.184 154.982 6.66467 154.982 7.206V7.36C154.982 7.92 155.103 8.41467 155.346 8.844C155.598 9.264 155.943 9.59533 156.382 9.838C156.83 10.0713 157.339 10.188 157.908 10.188C158.356 10.188 158.771 10.1087 159.154 9.95C159.546 9.79133 159.882 9.54867 160.162 9.222L160.722 9.866C160.395 10.258 159.985 10.5567 159.49 10.762C159.005 10.9673 158.468 11.07 157.88 11.07ZM165.181 11.07C164.575 11.07 164.001 10.986 163.459 10.818C162.918 10.6407 162.493 10.4213 162.185 10.16L162.633 9.376C162.932 9.6 163.315 9.796 163.781 9.964C164.248 10.1227 164.738 10.202 165.251 10.202C165.951 10.202 166.455 10.0947 166.763 9.88C167.071 9.656 167.225 9.362 167.225 8.998C167.225 8.72733 167.137 8.51733 166.959 8.368C166.791 8.20933 166.567 8.09267 166.287 8.018C166.007 7.934 165.695 7.864 165.349 7.808C165.004 7.752 164.659 7.68667 164.313 7.612C163.977 7.53733 163.669 7.43 163.389 7.29C163.109 7.14067 162.881 6.94 162.703 6.688C162.535 6.436 162.451 6.1 162.451 5.68C162.451 5.27867 162.563 4.91933 162.787 4.602C163.011 4.28467 163.338 4.03733 163.767 3.86C164.206 3.67333 164.738 3.58 165.363 3.58C165.839 3.58 166.315 3.64533 166.791 3.776C167.267 3.89733 167.659 4.06067 167.967 4.266L167.533 5.064C167.207 4.84 166.857 4.68133 166.483 4.588C166.11 4.48533 165.737 4.434 165.363 4.434C164.701 4.434 164.211 4.55067 163.893 4.784C163.585 5.008 163.431 5.29733 163.431 5.652C163.431 5.932 163.515 6.15133 163.683 6.31C163.861 6.46867 164.089 6.59467 164.369 6.688C164.659 6.772 164.971 6.842 165.307 6.898C165.653 6.954 165.993 7.024 166.329 7.108C166.675 7.18267 166.987 7.29 167.267 7.43C167.557 7.56067 167.785 7.752 167.953 8.004C168.131 8.24667 168.219 8.56867 168.219 8.97C168.219 9.39933 168.098 9.77267 167.855 10.09C167.622 10.398 167.277 10.6407 166.819 10.818C166.371 10.986 165.825 11.07 165.181 11.07ZM173.165 11.07C172.4 11.07 171.728 10.9113 171.149 10.594C170.571 10.2673 170.118 9.824 169.791 9.264C169.465 8.69467 169.301 8.046 169.301 7.318C169.301 6.59 169.455 5.946 169.763 5.386C170.081 4.826 170.51 4.38733 171.051 4.07C171.602 3.74333 172.218 3.58 172.899 3.58C173.59 3.58 174.201 3.73867 174.733 4.056C175.275 4.364 175.699 4.80267 176.007 5.372C176.315 5.932 176.469 6.58067 176.469 7.318C176.469 7.36467 176.465 7.416 176.455 7.472C176.455 7.51867 176.455 7.57 176.455 7.626H170.057V6.884H175.923L175.531 7.178C175.531 6.646 175.415 6.17467 175.181 5.764C174.957 5.344 174.649 5.01733 174.257 4.784C173.865 4.55067 173.413 4.434 172.899 4.434C172.395 4.434 171.943 4.55067 171.541 4.784C171.14 5.01733 170.827 5.344 170.603 5.764C170.379 6.184 170.267 6.66467 170.267 7.206V7.36C170.267 7.92 170.389 8.41467 170.631 8.844C170.883 9.264 171.229 9.59533 171.667 9.838C172.115 10.0713 172.624 10.188 173.193 10.188C173.641 10.188 174.057 10.1087 174.439 9.95C174.831 9.79133 175.167 9.54867 175.447 9.222L176.007 9.866C175.681 10.258 175.27 10.5567 174.775 10.762C174.29 10.9673 173.753 11.07 173.165 11.07ZM182.244 3.58C182.842 3.58 183.364 3.69667 183.812 3.93C184.27 4.154 184.624 4.49933 184.876 4.966C185.138 5.43267 185.268 6.02067 185.268 6.73V11H184.274V6.828C184.274 6.05333 184.078 5.47 183.686 5.078C183.304 4.67667 182.762 4.476 182.062 4.476C181.54 4.476 181.082 4.58333 180.69 4.798C180.308 5.00333 180.009 5.30667 179.794 5.708C179.589 6.1 179.486 6.576 179.486 7.136V11H178.492V3.65H179.444V5.666L179.29 5.288C179.524 4.756 179.897 4.34067 180.41 4.042C180.924 3.734 181.535 3.58 182.244 3.58ZM189.707 11L186.445 3.65H187.481L190.477 10.468H189.987L193.025 3.65H194.005L190.729 11H189.707ZM198.195 11.07C197.486 11.07 196.847 10.9113 196.277 10.594C195.717 10.2673 195.274 9.824 194.947 9.264C194.621 8.69467 194.457 8.046 194.457 7.318C194.457 6.58067 194.621 5.932 194.947 5.372C195.274 4.812 195.717 4.37333 196.277 4.056C196.837 3.73867 197.477 3.58 198.195 3.58C198.923 3.58 199.567 3.73867 200.127 4.056C200.697 4.37333 201.14 4.812 201.457 5.372C201.784 5.932 201.947 6.58067 201.947 7.318C201.947 8.046 201.784 8.69467 201.457 9.264C201.14 9.824 200.697 10.2673 200.127 10.594C199.558 10.9113 198.914 11.07 198.195 11.07ZM198.195 10.188C198.727 10.188 199.199 10.0713 199.609 9.838C200.02 9.59533 200.342 9.25933 200.575 8.83C200.818 8.39133 200.939 7.88733 200.939 7.318C200.939 6.73933 200.818 6.23533 200.575 5.806C200.342 5.37667 200.02 5.04533 199.609 4.812C199.199 4.56933 198.732 4.448 198.209 4.448C197.687 4.448 197.22 4.56933 196.809 4.812C196.399 5.04533 196.072 5.37667 195.829 5.806C195.587 6.23533 195.465 6.73933 195.465 7.318C195.465 7.88733 195.587 8.39133 195.829 8.83C196.072 9.25933 196.399 9.59533 196.809 9.838C197.22 10.0713 197.682 10.188 198.195 10.188ZM203.977 11V0.611999H204.971V11H203.977ZM209.627 11L206.365 3.65H207.401L210.397 10.468H209.907L212.945 3.65H213.925L210.649 11H209.627ZM215.324 11V3.65H216.318V11H215.324ZM215.828 2.026C215.623 2.026 215.45 1.956 215.31 1.816C215.17 1.676 215.1 1.508 215.1 1.312C215.1 1.116 215.17 0.952666 215.31 0.821999C215.45 0.681999 215.623 0.611999 215.828 0.611999C216.034 0.611999 216.206 0.677333 216.346 0.807999C216.486 0.938666 216.556 1.102 216.556 1.298C216.556 1.50333 216.486 1.676 216.346 1.816C216.216 1.956 216.043 2.026 215.828 2.026ZM222.01 11.07C221.31 11.07 220.68 10.9113 220.12 10.594C219.57 10.2767 219.136 9.838 218.818 9.278C218.501 8.70867 218.342 8.05533 218.342 7.318C218.342 6.57133 218.501 5.918 218.818 5.358C219.136 4.798 219.57 4.364 220.12 4.056C220.68 3.73867 221.31 3.58 222.01 3.58C222.654 3.58 223.228 3.72467 223.732 4.014C224.246 4.30333 224.652 4.728 224.95 5.288C225.258 5.83867 225.412 6.51533 225.412 7.318C225.412 8.11133 225.263 8.788 224.964 9.348C224.666 9.908 224.26 10.3373 223.746 10.636C223.242 10.9253 222.664 11.07 222.01 11.07ZM222.08 10.188C222.603 10.188 223.07 10.0713 223.48 9.838C223.9 9.59533 224.227 9.25933 224.46 8.83C224.703 8.39133 224.824 7.88733 224.824 7.318C224.824 6.73933 224.703 6.23533 224.46 5.806C224.227 5.37667 223.9 5.04533 223.48 4.812C223.07 4.56933 222.603 4.448 222.08 4.448C221.567 4.448 221.105 4.56933 220.694 4.812C220.284 5.04533 219.957 5.37667 219.714 5.806C219.472 6.23533 219.35 6.73933 219.35 7.318C219.35 7.88733 219.472 8.39133 219.714 8.83C219.957 9.25933 220.284 9.59533 220.694 9.838C221.105 10.0713 221.567 10.188 222.08 10.188ZM224.852 11V8.788L224.95 7.304L224.81 5.82V0.611999H225.804V11H224.852ZM231.569 11.07C230.859 11.07 230.22 10.9113 229.651 10.594C229.091 10.2673 228.647 9.824 228.321 9.264C227.994 8.69467 227.831 8.046 227.831 7.318C227.831 6.58067 227.994 5.932 228.321 5.372C228.647 4.812 229.091 4.37333 229.651 4.056C230.211 3.73867 230.85 3.58 231.569 3.58C232.297 3.58 232.941 3.73867 233.501 4.056C234.07 4.37333 234.513 4.812 234.831 5.372C235.157 5.932 235.321 6.58067 235.321 7.318C235.321 8.046 235.157 8.69467 234.831 9.264C234.513 9.824 234.07 10.2673 233.501 10.594C232.931 10.9113 232.287 11.07 231.569 11.07ZM231.569 10.188C232.101 10.188 232.572 10.0713 232.983 9.838C233.393 9.59533 233.715 9.25933 233.949 8.83C234.191 8.39133 234.313 7.88733 234.313 7.318C234.313 6.73933 234.191 6.23533 233.949 5.806C233.715 5.37667 233.393 5.04533 232.983 4.812C232.572 4.56933 232.105 4.448 231.583 4.448C231.06 4.448 230.593 4.56933 230.183 4.812C229.772 5.04533 229.445 5.37667 229.203 5.806C228.96 6.23533 228.839 6.73933 228.839 7.318C228.839 7.88733 228.96 8.39133 229.203 8.83C229.445 9.25933 229.772 9.59533 230.183 9.838C230.593 10.0713 231.055 10.188 231.569 10.188ZM244.808 11.07C244.173 11.07 243.599 10.9253 243.086 10.636C242.573 10.3373 242.162 9.91267 241.854 9.362C241.555 8.802 241.406 8.12067 241.406 7.318C241.406 6.51533 241.555 5.83867 241.854 5.288C242.153 4.728 242.559 4.30333 243.072 4.014C243.585 3.72467 244.164 3.58 244.808 3.58C245.508 3.58 246.133 3.73867 246.684 4.056C247.244 4.364 247.683 4.80267 248 5.372C248.317 5.932 248.476 6.58067 248.476 7.318C248.476 8.06467 248.317 8.718 248 9.278C247.683 9.838 247.244 10.2767 246.684 10.594C246.133 10.9113 245.508 11.07 244.808 11.07ZM241.014 13.716V3.65H241.966V5.862L241.868 7.332L242.008 8.816V13.716H241.014ZM244.738 10.188C245.261 10.188 245.727 10.0713 246.138 9.838C246.549 9.59533 246.875 9.25933 247.118 8.83C247.361 8.39133 247.482 7.88733 247.482 7.318C247.482 6.74867 247.361 6.24933 247.118 5.82C246.875 5.39067 246.549 5.05467 246.138 4.812C245.727 4.56933 245.261 4.448 244.738 4.448C244.215 4.448 243.744 4.56933 243.324 4.812C242.913 5.05467 242.587 5.39067 242.344 5.82C242.111 6.24933 241.994 6.74867 241.994 7.318C241.994 7.88733 242.111 8.39133 242.344 8.83C242.587 9.25933 242.913 9.59533 243.324 9.838C243.744 10.0713 244.215 10.188 244.738 10.188ZM253.624 11.07C252.859 11.07 252.187 10.9113 251.608 10.594C251.03 10.2673 250.577 9.824 250.25 9.264C249.924 8.69467 249.76 8.046 249.76 7.318C249.76 6.59 249.914 5.946 250.222 5.386C250.54 4.826 250.969 4.38733 251.51 4.07C252.061 3.74333 252.677 3.58 253.358 3.58C254.049 3.58 254.66 3.73867 255.192 4.056C255.734 4.364 256.158 4.80267 256.466 5.372C256.774 5.932 256.928 6.58067 256.928 7.318C256.928 7.36467 256.924 7.416 256.914 7.472C256.914 7.51867 256.914 7.57 256.914 7.626H250.516V6.884H256.382L255.99 7.178C255.99 6.646 255.874 6.17467 255.64 5.764C255.416 5.344 255.108 5.01733 254.716 4.784C254.324 4.55067 253.872 4.434 253.358 4.434C252.854 4.434 252.402 4.55067 252 4.784C251.599 5.01733 251.286 5.344 251.062 5.764C250.838 6.184 250.726 6.66467 250.726 7.206V7.36C250.726 7.92 250.848 8.41467 251.09 8.844C251.342 9.264 251.688 9.59533 252.126 9.838C252.574 10.0713 253.083 10.188 253.652 10.188C254.1 10.188 254.516 10.1087 254.898 9.95C255.29 9.79133 255.626 9.54867 255.906 9.222L256.466 9.866C256.14 10.258 255.729 10.5567 255.234 10.762C254.749 10.9673 254.212 11.07 253.624 11.07ZM258.951 11V0.611999H259.945V11H258.951ZM267.317 11V9.376L267.275 9.11V6.394C267.275 5.76867 267.098 5.288 266.743 4.952C266.398 4.616 265.88 4.448 265.189 4.448C264.713 4.448 264.261 4.52733 263.831 4.686C263.402 4.84467 263.038 5.05467 262.739 5.316L262.291 4.574C262.665 4.25667 263.113 4.014 263.635 3.846C264.158 3.66867 264.709 3.58 265.287 3.58C266.239 3.58 266.972 3.818 267.485 4.294C268.008 4.76067 268.269 5.47467 268.269 6.436V11H267.317ZM264.783 11.07C264.233 11.07 263.752 10.9813 263.341 10.804C262.94 10.6173 262.632 10.3653 262.417 10.048C262.203 9.72133 262.095 9.348 262.095 8.928C262.095 8.54533 262.184 8.2 262.361 7.892C262.548 7.57467 262.847 7.32267 263.257 7.136C263.677 6.94 264.237 6.842 264.937 6.842H267.471V7.584H264.965C264.256 7.584 263.761 7.71 263.481 7.962C263.211 8.214 263.075 8.52667 263.075 8.9C263.075 9.32 263.239 9.656 263.565 9.908C263.892 10.16 264.349 10.286 264.937 10.286C265.497 10.286 265.978 10.16 266.379 9.908C266.79 9.64667 267.089 9.27333 267.275 8.788L267.499 9.474C267.313 9.95933 266.986 10.3467 266.519 10.636C266.062 10.9253 265.483 11.07 264.783 11.07ZM276.495 5.148H281.213V6.912H276.495V5.148ZM276.663 9.18H281.997V11H274.409V1.2H281.815V3.02H276.663V9.18ZM285.608 11.168C284.945 11.168 284.334 11.0467 283.774 10.804C283.223 10.552 282.77 10.1973 282.416 9.74L283.676 8.228C283.946 8.58267 284.231 8.85333 284.53 9.04C284.828 9.21733 285.15 9.306 285.496 9.306C286.42 9.306 286.882 8.76467 286.882 7.682V3.02H283.438V1.2H289.136V7.556C289.136 8.76933 288.837 9.67467 288.24 10.272C287.642 10.8693 286.765 11.168 285.608 11.168ZM293.462 5.148H298.18V6.912H293.462V5.148ZM293.63 9.18H298.964V11H291.376V1.2H298.782V3.02H293.63V9.18ZM305.458 11.168C304.702 11.168 303.998 11.0467 303.344 10.804C302.7 10.552 302.14 10.1973 301.664 9.74C301.188 9.28267 300.815 8.746 300.544 8.13C300.283 7.514 300.152 6.83733 300.152 6.1C300.152 5.36267 300.283 4.686 300.544 4.07C300.815 3.454 301.188 2.91733 301.664 2.46C302.15 2.00267 302.714 1.65267 303.358 1.41C304.002 1.158 304.707 1.032 305.472 1.032C306.322 1.032 307.087 1.18133 307.768 1.48C308.459 1.76933 309.038 2.19867 309.504 2.768L308.048 4.112C307.712 3.72933 307.339 3.44467 306.928 3.258C306.518 3.062 306.07 2.964 305.584 2.964C305.127 2.964 304.707 3.03867 304.324 3.188C303.942 3.33733 303.61 3.552 303.33 3.832C303.05 4.112 302.831 4.44333 302.672 4.826C302.523 5.20867 302.448 5.63333 302.448 6.1C302.448 6.56667 302.523 6.99133 302.672 7.374C302.831 7.75667 303.05 8.088 303.33 8.368C303.61 8.648 303.942 8.86267 304.324 9.012C304.707 9.16133 305.127 9.236 305.584 9.236C306.07 9.236 306.518 9.14267 306.928 8.956C307.339 8.76 307.712 8.466 308.048 8.074L309.504 9.418C309.038 9.98733 308.459 10.4213 307.768 10.72C307.087 11.0187 306.317 11.168 305.458 11.168ZM312.97 11V3.048H309.834V1.2H318.374V3.048H315.238V11H312.97Z" fill="#595959"/>
</svg>
