<svg width="56" height="56" viewBox="0 0 56 56" fill="none" xmlns="http://www.w3.org/2000/svg">
<g filter="url(#filter0_d_2209_711)">
<rect x="4" width="48" height="48" rx="24" fill="#F2F2F2"/>
<path d="M13.2882 23.38H17.3202V24.94H13.2882V23.38ZM13.4322 28H11.4882V19.6H17.8362V21.16H13.4322V28ZM23.1502 28.144C22.4862 28.144 21.8702 28.036 21.3022 27.82C20.7422 27.604 20.2542 27.3 19.8382 26.908C19.4302 26.516 19.1102 26.056 18.8782 25.528C18.6542 25 18.5422 24.424 18.5422 23.8C18.5422 23.176 18.6542 22.6 18.8782 22.072C19.1102 21.544 19.4342 21.084 19.8502 20.692C20.2662 20.3 20.7542 19.996 21.3142 19.78C21.8742 19.564 22.4822 19.456 23.1382 19.456C23.8022 19.456 24.4102 19.564 24.9622 19.78C25.5222 19.996 26.0062 20.3 26.4142 20.692C26.8302 21.084 27.1542 21.544 27.3862 22.072C27.6182 22.592 27.7342 23.168 27.7342 23.8C27.7342 24.424 27.6182 25.004 27.3862 25.54C27.1542 26.068 26.8302 26.528 26.4142 26.92C26.0062 27.304 25.5222 27.604 24.9622 27.82C24.4102 28.036 23.8062 28.144 23.1502 28.144ZM23.1382 26.488C23.5142 26.488 23.8582 26.424 24.1702 26.296C24.4902 26.168 24.7702 25.984 25.0102 25.744C25.2502 25.504 25.4342 25.22 25.5622 24.892C25.6982 24.564 25.7662 24.2 25.7662 23.8C25.7662 23.4 25.6982 23.036 25.5622 22.708C25.4342 22.38 25.2502 22.096 25.0102 21.856C24.7782 21.616 24.5022 21.432 24.1822 21.304C23.8622 21.176 23.5142 21.112 23.1382 21.112C22.7622 21.112 22.4142 21.176 22.0942 21.304C21.7822 21.432 21.5062 21.616 21.2662 21.856C21.0262 22.096 20.8382 22.38 20.7022 22.708C20.5742 23.036 20.5102 23.4 20.5102 23.8C20.5102 24.192 20.5742 24.556 20.7022 24.892C20.8382 25.22 21.0222 25.504 21.2542 25.744C21.4942 25.984 21.7742 26.168 22.0942 26.296C22.4142 26.424 22.7622 26.488 23.1382 26.488ZM30.818 28V21.184H28.13V19.6H35.45V21.184H32.762V28H30.818ZM40.4588 28.144C39.7948 28.144 39.1788 28.036 38.6108 27.82C38.0508 27.604 37.5628 27.3 37.1468 26.908C36.7388 26.516 36.4188 26.056 36.1868 25.528C35.9628 25 35.8508 24.424 35.8508 23.8C35.8508 23.176 35.9628 22.6 36.1868 22.072C36.4188 21.544 36.7428 21.084 37.1588 20.692C37.5748 20.3 38.0628 19.996 38.6228 19.78C39.1828 19.564 39.7908 19.456 40.4468 19.456C41.1108 19.456 41.7188 19.564 42.2708 19.78C42.8308 19.996 43.3148 20.3 43.7228 20.692C44.1388 21.084 44.4628 21.544 44.6948 22.072C44.9268 22.592 45.0428 23.168 45.0428 23.8C45.0428 24.424 44.9268 25.004 44.6948 25.54C44.4628 26.068 44.1388 26.528 43.7228 26.92C43.3148 27.304 42.8308 27.604 42.2708 27.82C41.7188 28.036 41.1148 28.144 40.4588 28.144ZM40.4468 26.488C40.8228 26.488 41.1668 26.424 41.4788 26.296C41.7988 26.168 42.0788 25.984 42.3188 25.744C42.5588 25.504 42.7428 25.22 42.8708 24.892C43.0068 24.564 43.0748 24.2 43.0748 23.8C43.0748 23.4 43.0068 23.036 42.8708 22.708C42.7428 22.38 42.5588 22.096 42.3188 21.856C42.0868 21.616 41.8108 21.432 41.4908 21.304C41.1708 21.176 40.8228 21.112 40.4468 21.112C40.0708 21.112 39.7228 21.176 39.4028 21.304C39.0908 21.432 38.8148 21.616 38.5748 21.856C38.3348 22.096 38.1468 22.38 38.0108 22.708C37.8828 23.036 37.8188 23.4 37.8188 23.8C37.8188 24.192 37.8828 24.556 38.0108 24.892C38.1468 25.22 38.3308 25.504 38.5628 25.744C38.8028 25.984 39.0828 26.168 39.4028 26.296C39.7228 26.424 40.0708 26.488 40.4468 26.488Z" fill="black"/>
</g>
<defs>
<filter id="filter0_d_2209_711" x="0" y="0" width="56" height="56" filterUnits="userSpaceOnUse" color-interpolation-filters="sRGB">
<feFlood flood-opacity="0" result="BackgroundImageFix"/>
<feColorMatrix in="SourceAlpha" type="matrix" values="0 0 0 0 0 0 0 0 0 0 0 0 0 0 0 0 0 0 127 0" result="hardAlpha"/>
<feOffset dy="4"/>
<feGaussianBlur stdDeviation="2"/>
<feColorMatrix type="matrix" values="0 0 0 0 0 0 0 0 0 0 0 0 0 0 0 0 0 0 0.25 0"/>
<feBlend mode="normal" in2="BackgroundImageFix" result="effect1_dropShadow_2209_711"/>
<feBlend mode="normal" in="SourceGraphic" in2="effect1_dropShadow_2209_711" result="shape"/>
</filter>
</defs>
</svg>
