<svg width="71" height="63" viewBox="0 0 71 63" fill="none" xmlns="http://www.w3.org/2000/svg">
<g clip-path="url(#clip0_1062_2639)">
<path d="M32.5777 28.9368C32.8471 28.937 33.1073 28.8502 33.3099 28.6927L58.4195 9.15872L56.9551 7.67822L31.8455 27.2102C31.6749 27.342 31.5539 27.517 31.4985 27.7116C31.4432 27.9062 31.4563 28.1112 31.5359 28.2991C31.6156 28.4869 31.7581 28.6487 31.9443 28.7627C32.1305 28.8767 32.3515 28.9374 32.5777 28.9368Z" fill="#F8F8F8"/>
<path d="M22.6046 63C36.2322 63 44.375 53.4909 44.375 44.2969C44.375 41.6469 43.6606 38.7273 42.6044 36.8314L52.6376 32.38C52.8217 32.2982 52.9764 32.1725 53.0846 32.0171C53.1927 31.8617 53.25 31.6827 53.25 31.5V23.625H59.9062L60.157 23.6132C61.6347 23.5246 62.0762 23.1072 62.125 21.6562V13.7812H68.7812C69.0675 13.7812 69.2649 13.8088 69.3981 13.8265C69.6665 13.8639 70.168 13.9328 70.6028 13.5863C71.051 13.232 71.0311 12.7831 71.0133 12.3874C71.0089 12.2456 71 12.0586 71 11.8125V2.89209C70.9994 2.12522 70.6558 1.38991 70.0447 0.847651C69.4336 0.305391 68.6049 0.000521504 67.7407 0L59.143 0C58.3525 0.00146259 57.5891 0.255911 56.993 0.716625L27.7344 23.4754C26.2944 23.2194 24.1178 22.8867 22.6024 22.8867C10.1397 22.8867 0 31.8839 0 42.9424C0 54.0008 10.1397 63 22.6046 63ZM22.6046 24.8555C23.7162 24.8555 25.6199 25.0917 27.8276 25.5012C27.9958 25.5334 28.1702 25.53 28.3367 25.4913C28.5032 25.4527 28.6571 25.3799 28.7861 25.2787L58.453 2.20106C58.6438 2.0522 58.8889 1.96968 59.143 1.96875H67.7407C68.3153 1.96875 68.7812 2.38219 68.7812 2.89209V11.8125H61.0156C60.7214 11.8125 60.4392 11.9162 60.2312 12.1008C60.0231 12.2854 59.9062 12.5358 59.9062 12.7969V21.6562H52.1406C51.8464 21.6562 51.5642 21.76 51.3562 21.9446C51.1481 22.1292 51.0312 22.3796 51.0312 22.6406V30.8917L40.5499 35.5418C40.406 35.6056 40.2794 35.6964 40.179 35.8078C40.0786 35.9193 40.0067 36.0488 39.9682 36.1874C39.9298 36.326 39.9258 36.4703 39.9565 36.6104C39.9872 36.7505 40.0519 36.883 40.1461 36.9987C41.1223 38.1937 42.1562 41.1607 42.1562 44.2969C42.1562 52.5223 34.8433 61.0312 22.6046 61.0312C11.3644 61.0312 2.21875 52.9161 2.21875 42.9424C2.21875 32.9687 11.3644 24.8555 22.6046 24.8555Z" fill="#F8F8F8"/>
<path d="M18.8594 53.1562C23.1416 53.1562 26.625 50.0653 26.625 46.2656C26.625 42.4659 23.1416 39.375 18.8594 39.375C14.5772 39.375 11.0938 42.4659 11.0938 46.2656C11.0938 50.0653 14.5772 53.1562 18.8594 53.1562ZM18.8594 41.3438C21.9168 41.3438 24.4062 43.5527 24.4062 46.2656C24.4062 48.9786 21.9168 51.1875 18.8594 51.1875C15.8019 51.1875 13.3125 48.9786 13.3125 46.2656C13.3125 43.5527 15.8019 41.3438 18.8594 41.3438Z" fill="#F8F8F8"/>
</g>
<defs>
<clipPath id="clip0_1062_2639">
<rect width="71" height="63" fill="white"/>
</clipPath>
</defs>
</svg>
